<?xml version="1.0" encoding="UTF-8" standalone="no"?>
<!-- Created with Inkscape (http://www.inkscape.org/) -->

<svg
   width="14.72424mm"
   height="14.72424mm"
   viewBox="0 0 14.72424 14.72424"
   version="1.1"
   id="svg1"
   inkscape:version="1.4.2 (ebf0e940d0, 2025-05-08)"
   sodipodi:docname="pales_eolienne.svg"
   xmlns:inkscape="http://www.inkscape.org/namespaces/inkscape"
   xmlns:sodipodi="http://sodipodi.sourceforge.net/DTD/sodipodi-0.dtd"
   xmlns="http://www.w3.org/2000/svg"
   xmlns:svg="http://www.w3.org/2000/svg">
  <sodipodi:namedview
     id="namedview1"
     pagecolor="#ffffff"
     bordercolor="#000000"
     borderopacity="0.25"
     inkscape:showpageshadow="2"
     inkscape:pageopacity="0.0"
     inkscape:pagecheckerboard="0"
     inkscape:deskcolor="#d1d1d1"
     inkscape:document-units="mm"
     inkscape:zoom="6.8133032"
     inkscape:cx="29.868038"
     inkscape:cy="17.172287"
     inkscape:window-width="1920"
     inkscape:window-height="919"
     inkscape:window-x="0"
     inkscape:window-y="48"
     inkscape:window-maximized="1"
     inkscape:current-layer="layer1" />
  <defs
     id="defs1" />
  <g
     inkscape:label="Calque 1"
     inkscape:groupmode="layer"
     id="layer1"
     transform="translate(-96.52259,-140.25648)">
    <g
       id="g7">
      <path
         d="m 102.84539,146.99685 c -0.002,0.003 -0.003,0.007 -0.006,0.009 -0.10009,0.16418 -0.1616,0.35489 -0.17207,0.56077 -0.0168,0.32877 0.10167,0.63206 0.30507,0.85695 0.20445,0.22493 0.49498,0.3704 0.82348,0.38465 0.32849,0.0142 0.63254,-0.10654 0.85887,-0.31169 0.22636,-0.20625 0.37396,-0.49801 0.39068,-0.82678 0.0105,-0.2048 -0.0315,-0.40107 -0.11442,-0.5732 -9.6e-4,-0.002 -0.003,-0.006 -0.004,-0.008 -0.0488,-0.10042 -0.11217,-0.19283 -0.18679,-0.27492 -0.20445,-0.22493 -0.49498,-0.3704 -0.82347,-0.38465 -0.32849,-0.0142 -0.63254,0.10653 -0.85887,0.31169 -0.0826,0.0753 -0.15503,0.16181 -0.21386,0.25756 z"
         id="path2"
         style="stroke-width:0.276138" />
      <path
         d="m 104.8347,145.98483 0.26897,-5.72835 c -0.60041,0.0443 -1.05161,0.30998 -1.37341,0.75914 -0.42884,0.6015 -0.65301,1.53738 -0.70896,2.72892 l -0.10092,2.14923 c 0.2845,-0.18083 0.61861,-0.27786 0.97105,-0.26131 0.35245,0.0165 0.676,0.14446 0.9423,0.35115 z"
         id="path1"
         style="stroke-width:0.274149" />
      <path
         d="m 104.8347,149.25237 0.26897,5.72835 c -0.60041,-0.0443 -1.05161,-0.30998 -1.37341,-0.75914 -0.42884,-0.6015 -0.65301,-1.53738 -0.70896,-2.72892 l -0.10092,-2.14923 c 0.2845,0.18083 0.61861,0.27786 0.97105,0.26131 0.35245,-0.0165 0.676,-0.14446 0.9423,-0.35115 z"
         id="path3"
         style="stroke-width:0.274149" />
      <path
         d="m 104.50646,146.57928 c -0.003,-0.002 -0.007,-0.003 -0.009,-0.006 -0.16418,-0.10009 -0.35489,-0.1616 -0.56077,-0.17207 -0.32877,-0.0168 -0.63206,0.10167 -0.85695,0.30507 -0.22493,0.20445 -0.3704,0.49498 -0.38465,0.82348 -0.0142,0.32849 0.10654,0.63254 0.31169,0.85887 0.20625,0.22636 0.49801,0.37396 0.82678,0.39068 0.2048,0.0105 0.40107,-0.0315 0.5732,-0.11442 0.002,-9.6e-4 0.006,-0.003 0.008,-0.004 0.10042,-0.0488 0.19283,-0.11217 0.27492,-0.18679 0.22493,-0.20445 0.3704,-0.49498 0.38465,-0.82347 0.0142,-0.32849 -0.10653,-0.63254 -0.31169,-0.85887 -0.0753,-0.0826 -0.16181,-0.15503 -0.25756,-0.21386 z"
         id="path4"
         style="stroke-width:0.276138" />
      <path
         d="m 105.51848,148.56859 5.72835,0.26897 c -0.0443,-0.60041 -0.30998,-1.05161 -0.75914,-1.37341 -0.6015,-0.42884 -1.53738,-0.65301 -2.72892,-0.70896 l -2.14923,-0.10092 c 0.18083,0.2845 0.27786,0.61861 0.26131,0.97105 -0.0165,0.35245 -0.14446,0.676 -0.35115,0.9423 z"
         id="path5"
         style="stroke-width:0.274149" />
      <path
         d="m 102.25094,148.56859 -5.72835,0.26897 c 0.0443,-0.60041 0.30998,-1.05161 0.75914,-1.37341 0.6015,-0.42884 1.53738,-0.65301 2.72892,-0.70896 l 2.14923,-0.10092 c -0.18083,0.2845 -0.27786,0.61861 -0.26131,0.97105 0.0165,0.35245 0.14446,0.676 0.35115,0.9423 z"
         id="path6"
         style="stroke-width:0.274149" />
    </g>
  </g>
</svg>
